<?xml version="1.0" encoding="UTF-8"?>
<svg xmlns="http://www.w3.org/2000/svg" style="display: none;">
  
  <!-- 风格1: 极简水墨线条 -->
  <symbol id="ink-chat" viewBox="0 0 24 24">
    <path d="M4 4h16v12H8l-4 4V4z" fill="none" stroke="#0E3265" stroke-width="1.5" stroke-linecap="round" stroke-linejoin="round" opacity="0.9"/>
    <path d="M8 9h8M8 13h5" stroke="#0E3265" stroke-width="1.5" stroke-linecap="round" opacity="0.6"/>
  </symbol>

  <symbol id="ink-user" viewBox="0 0 24 24">
    <circle cx="12" cy="8" r="4" fill="none" stroke="#0E3265" stroke-width="1.5" opacity="0.9"/>
    <path d="M4 20c0-4 4-6 8-6s8 2 8 6" fill="none" stroke="#0E3265" stroke-width="1.5" stroke-linecap="round" opacity="0.7"/>
  </symbol>

  <symbol id="ink-file" viewBox="0 0 24 24">
    <path d="M14 2H6a2 2 0 00-2 2v16a2 2 0 002 2h12a2 2 0 002-2V8z" fill="none" stroke="#0E3265" stroke-width="1.5" stroke-linejoin="round" opacity="0.9"/>
    <path d="M14 2v6h6M12 18v-6M9 15h6" stroke="#0E3265" stroke-width="1.5" stroke-linecap="round" opacity="0.6"/>
  </symbol>

  <symbol id="ink-folder" viewBox="0 0 24 24">
    <path d="M4 4h6l2 3h8a2 2 0 012 2v10a2 2 0 01-2 2H4a2 2 0 01-2-2V6a2 2 0 012-2z" fill="none" stroke="#0E3265" stroke-width="1.5" opacity="0.9"/>
  </symbol>

  <symbol id="ink-upload" viewBox="0 0 24 24">
    <path d="M21 15v4a2 2 0 01-2 2H5a2 2 0 01-2-2v-4M12 3v12M7 8l5-5 5 5" fill="none" stroke="#0E3265" stroke-width="1.5" stroke-linecap="round" stroke-linejoin="round" opacity="0.9"/>
  </symbol>

  <symbol id="ink-search" viewBox="0 0 24 24">
    <circle cx="11" cy="11" r="7" fill="none" stroke="#0E3265" stroke-width="1.5" opacity="0.9"/>
    <path d="M21 21l-4.35-4.35" stroke="#0E3265" stroke-width="1.5" stroke-linecap="round" opacity="0.7"/>
  </symbol>

  <symbol id="ink-delete" viewBox="0 0 24 24">
    <path d="M3 6h18M8 6V4a2 2 0 012-2h4a2 2 0 012 2v2m3 0v14a2 2 0 01-2 2H7a2 2 0 01-2-2V6h14zM10 11v6M14 11v6" stroke="#C45C48" stroke-width="1.5" stroke-linecap="round" stroke-linejoin="round" opacity="0.9"/>
  </symbol>

  <symbol id="ink-download" viewBox="0 0 24 24">
    <path d="M21 15v4a2 2 0 01-2 2H5a2 2 0 01-2-2v-4M7 10l5 5 5-5M12 15V3" fill="none" stroke="#0E3265" stroke-width="1.5" stroke-linecap="round" stroke-linejoin="round" opacity="0.9"/>
  </symbol>

  <symbol id="ink-close" viewBox="0 0 24 24">
    <path d="M18 6L6 18M6 6l12 12" stroke="#0E3265" stroke-width="1.5" stroke-linecap="round" opacity="0.9"/>
  </symbol>

  <symbol id="ink-menu" viewBox="0 0 24 24">
    <path d="M3 6h18M3 12h18M3 18h18" stroke="#0E3265" stroke-width="1.5" stroke-linecap="round" opacity="0.9"/>
  </symbol>

  <symbol id="ink-settings" viewBox="0 0 24 24">
    <circle cx="12" cy="12" r="3" fill="none" stroke="#0E3265" stroke-width="1.5" opacity="0.9"/>
    <path d="M12 1v6m0 10v6M4.22 4.22l4.24 4.24m7.08 7.08l4.24 4.24M1 12h6m10 0h6M4.22 19.78l4.24-4.24m7.08-7.08l4.24-4.24" stroke="#0E3265" stroke-width="1.5" stroke-linecap="round" opacity="0.7"/>
  </symbol>

  <symbol id="ink-plus" viewBox="0 0 24 24">
    <path d="M12 5v14M5 12h14" stroke="#0E3265" stroke-width="1.5" stroke-linecap="round" opacity="0.9"/>
  </symbol>

  <symbol id="ink-arrow-right" viewBox="0 0 24 24">
    <path d="M5 12h14M12 5l7 7-7 7" fill="none" stroke="#0E3265" stroke-width="1.5" stroke-linecap="round" stroke-linejoin="round" opacity="0.9"/>
  </symbol>

  <symbol id="ink-arrow-left" viewBox="0 0 24 24">
    <path d="M19 12H5M12 19l-7-7 7-7" fill="none" stroke="#0E3265" stroke-width="1.5" stroke-linecap="round" stroke-linejoin="round" opacity="0.9"/>
  </symbol>

  <symbol id="ink-document" viewBox="0 0 24 24">
    <path d="M14 2H6a2 2 0 00-2 2v16a2 2 0 002 2h12a2 2 0 002-2V8z" fill="none" stroke="#0E3265" stroke-width="1.5" stroke-linejoin="round" opacity="0.9"/>
    <path d="M14 2v6h6" stroke="#0E3265" stroke-width="1.5" stroke-linejoin="round" opacity="0.6"/>
    <path d="M8 13h8M8 17h5" stroke="#0E3265" stroke-width="1.5" stroke-linecap="round" opacity="0.4"/>
  </symbol>

  <symbol id="ink-time" viewBox="0 0 24 24">
    <circle cx="12" cy="12" r="9" fill="none" stroke="#0E3265" stroke-width="1.5" opacity="0.9"/>
    <path d="M12 7v5l3 3" stroke="#0E3265" stroke-width="1.5" stroke-linecap="round" opacity="0.7"/>
  </symbol>

  <symbol id="ink-calendar" viewBox="0 0 24 24">
    <rect x="3" y="4" width="18" height="18" rx="2" fill="none" stroke="#0E3265" stroke-width="1.5" opacity="0.9"/>
    <path d="M16 2v4M8 2v4M3 10h18" stroke="#0E3265" stroke-width="1.5" stroke-linecap="round" opacity="0.7"/>
  </symbol>

  <symbol id="ink-send" viewBox="0 0 24 24">
    <path d="M22 2L11 13M22 2l-7 20-4-9-9-4 20-7z" fill="none" stroke="#0E3265" stroke-width="1.5" stroke-linecap="round" stroke-linejoin="round" opacity="0.9"/>
  </symbol>

  <symbol id="ink-attachment" viewBox="0 0 24 24">
    <path d="M21.44 11.05l-9.19 9.19a6 6 0 01-8.49-8.49l9.19-9.19a4 4 0 015.66 5.66l-9.2 9.19a2 2 0 01-2.83-2.83l8.49-8.48" fill="none" stroke="#0E3265" stroke-width="1.5" stroke-linecap="round" opacity="0.9"/>
  </symbol>

  <symbol id="ink-more" viewBox="0 0 24 24">
    <circle cx="12" cy="5" r="2" fill="#0E3265" opacity="0.9"/>
    <circle cx="12" cy="12" r="2" fill="#0E3265" opacity="0.9"/>
    <circle cx="12" cy="19" r="2" fill="#0E3265" opacity="0.9"/>
  </symbol>

  <symbol id="ink-check" viewBox="0 0 24 24">
    <path d="M20 6L9 17l-5-5" fill="none" stroke="#5A8A6A" stroke-width="1.5" stroke-linecap="round" stroke-linejoin="round" opacity="0.9"/>
  </symbol>

  <symbol id="ink-warning" viewBox="0 0 24 24">
    <path d="M12 2L2 22h20L12 2z" fill="none" stroke="#C45C48" stroke-width="1.5" stroke-linejoin="round" opacity="0.9"/>
    <path d="M12 9v6M12 17h.01" stroke="#C45C48" stroke-width="1.5" stroke-linecap="round" opacity="0.9"/>
  </symbol>

  <symbol id="ink-info" viewBox="0 0 24 24">
    <circle cx="12" cy="12" r="9" fill="none" stroke="#0E3265" stroke-width="1.5" opacity="0.9"/>
    <path d="M12 8h.01M11 12h2v5h-2z" fill="#0E3265" opacity="0.9"/>
  </symbol>

  <symbol id="ink-home" viewBox="0 0 24 24">
    <path d="M3 12l2-2m0 0l7-7 7 7M5 10v10a1 1 0 001 1h3m10-11l2 2m-2-2v10a1 1 0 01-1 1h-3m-6 0a1 1 0 001-1v-4a1 1 0 011-1h2a1 1 0 011 1v4a1 1 0 001 1m-6 0h6" fill="none" stroke="#0E3265" stroke-width="1.5" stroke-linecap="round" stroke-linejoin="round" opacity="0.9"/>
  </symbol>

  <symbol id="ink-logout" viewBox="0 0 24 24">
    <path d="M9 21H5a2 2 0 01-2-2V5a2 2 0 012-2h4M16 17l5-5-5-5M21 12H9" fill="none" stroke="#0E3265" stroke-width="1.5" stroke-linecap="round" stroke-linejoin="round" opacity="0.9"/>
  </symbol>

  <symbol id="ink-edit" viewBox="0 0 24 24">
    <path d="M11 4H4a2 2 0 00-2 2v14a2 2 0 002 2h14a2 2 0 002-2v-7" fill="none" stroke="#0E3265" stroke-width="1.5" stroke-linecap="round" stroke-linejoin="round" opacity="0.9"/>
    <path d="M18.5 2.5a2.121 2.121 0 013 3L12 15l-4 1 1-4 9.5-9.5z" fill="none" stroke="#0E3265" stroke-width="1.5" stroke-linecap="round" stroke-linejoin="round" opacity="0.9"/>
  </symbol>

  <symbol id="ink-copy" viewBox="0 0 24 24">
    <rect x="9" y="9" width="13" height="13" rx="2" fill="none" stroke="#0E3265" stroke-width="1.5" opacity="0.9"/>
    <path d="M5 15H4a2 2 0 01-2-2V4a2 2 0 012-2h9a2 2 0 012 2v1" fill="none" stroke="#0E3265" stroke-width="1.5" opacity="0.6"/>
  </symbol>

  <symbol id="ink-refresh" viewBox="0 0 24 24">
    <path d="M23 4v6h-6M1 20v-6h6" fill="none" stroke="#0E3265" stroke-width="1.5" stroke-linecap="round" stroke-linejoin="round" opacity="0.9"/>
    <path d="M3.51 9a9 9 0 0114.85-3.36L23 10M1 14l4.64 4.36A9 9 0 0020.49 15" fill="none" stroke="#0E3265" stroke-width="1.5" stroke-linecap="round" stroke-linejoin="round" opacity="0.9"/>
  </symbol>

</svg>